<svg xmlns="http://www.w3.org/2000/svg" width="20" height="20" viewBox="0 0 20 20">
    <path fill="#FFF" fill-rule="evenodd" d="M1.302 9.745l8.953 8.953a.4.4 0 0 1 0 .566l-.454.454a.962.962 0 0 1-1.36 0L.281 11.56a.962.962 0 0 1 0-1.36l.455-.454a.4.4 0 0 1 .566 0zM11.277 0h6.8C19.139 0 20 .861 20 1.923v6.8c0 .51-.203.999-.563 1.36l-7.343 7.342a.2.2 0 0 1-.283 0L2.575 8.19a.2.2 0 0 1 0-.283L9.918.563c.36-.36.85-.563 1.36-.563zm-.202 2.234L5.827 7.482a.8.8 0 0 0 0 1.131l5.56 5.56a.8.8 0 0 0 1.131 0l5.248-5.248A.8.8 0 0 0 18 8.36V2.8a.8.8 0 0 0-.8-.8h-5.56a.8.8 0 0 0-.565.234zm1.51 5.18a2 2 0 1 1 2.83-2.828 2 2 0 0 1-2.83 2.828z"/>
</svg>
